<svg id="svgQrWrapper" viewBox="0 0 300 300" xmlns="http://www.w3.org/2000/svg" xmlns:xlink="http://www.w3.org/1999/xlink" style="width: 100%; height: 100%; background-color: rgb(255, 255, 255);"><svg><g transform="translate(9, 9)scale(0.95)" fill="none"><svg width="300" height="300"><style>.background-color{ fill: transparent; }.dot-color{ fill: #000000; }.corners-square-color-0-0{ fill: #000000; }.corners-dot-color-0-0{ fill: #000000; }.corners-square-color-1-0{ fill: #000000; }.corners-dot-color-1-0{ fill: #000000; }.corners-square-color-0-1{ fill: #000000; }.corners-dot-color-0-1{ fill: #000000; }</style><defs/><g class="dot-color"><path d="M 5 85v 10h 10a 10 10, 0, 0, 0, -10 -10" transform="rotate(-90,10,90)"/><path d="M 5 95v 10h 10a 10 10, 0, 0, 0, -10 -10" transform="rotate(180,10,100)"/><path d="M 5 135v 10h 5a 5 5, 0, 0, 0, 0 -10" transform="rotate(180,10,140)"/><path d="M 5 155v 10h 10a 10 10, 0, 0, 0, -10 -10" transform="rotate(-90,10,160)"/><rect x="5" y="165" width="10" height="10" transform="rotate(0,10,170)"/><rect x="5" y="175" width="10" height="10" transform="rotate(0,10,180)"/><path d="M 5 185v 10h 10a 10 10, 0, 0, 0, -10 -10" transform="rotate(180,10,190)"/><rect x="15" y="85" width="10" height="10" transform="rotate(0,20,90)"/><path d="M 15 95v 10h 10a 10 10, 0, 0, 0, -10 -10" transform="rotate(90,20,100)"/><path d="M 15 135v 10h 5a 5 5, 0, 0, 0, 0 -10" transform="rotate(0,20,140)"/><path d="M 15 155v 10h 5a 5 5, 0, 0, 0, 0 -10" transform="rotate(0,20,160)"/><path d="M 15 175v 10h 10a 10 10, 0, 0, 0, -10 -10" transform="rotate(0,20,180)"/><path d="M 15 185v 10h 10a 10 10, 0, 0, 0, -10 -10" transform="rotate(90,20,190)"/><rect x="25" y="85" width="10" height="10" transform="rotate(0,30,90)"/><path d="M 25 105v 10h 10a 10 10, 0, 0, 0, -10 -10" transform="rotate(-90,30,110)"/><rect x="25" y="115" width="10" height="10" transform="rotate(0,30,120)"/><path d="M 25 125v 10h 5a 5 5, 0, 0, 0, 0 -10" transform="rotate(90,30,130)"/><circle cx="30" cy="150" r="5" transform="rotate(0,30,150)"/><path d="M 25 165v 10h 5a 5 5, 0, 0, 0, 0 -10" transform="rotate(180,30,170)"/><circle cx="30" cy="200" r="5" transform="rotate(0,30,200)"/><rect x="35" y="85" width="10" height="10" transform="rotate(0,40,90)"/><path d="M 35 105v 10h 5a 5 5, 0, 0, 0, 0 -10" transform="rotate(0,40,110)"/><path d="M 35 135v 10h 5a 5 5, 0, 0, 0, 0 -10" transform="rotate(180,40,140)"/><path d="M 35 165v 10h 5a 5 5, 0, 0, 0, 0 -10" transform="rotate(0,40,170)"/><circle cx="40" cy="190" r="5" transform="rotate(0,40,190)"/><path d="M 45 85v 10h 5a 5 5, 0, 0, 0, 0 -10" transform="rotate(0,50,90)"/><rect x="45" y="135" width="10" height="10" transform="rotate(0,50,140)"/><path d="M 45 195v 10h 10a 10 10, 0, 0, 0, -10 -10" transform="rotate(-90,50,200)"/><path d="M 45 205v 10h 10a 10 10, 0, 0, 0, -10 -10" transform="rotate(180,50,210)"/><circle cx="60" cy="120" r="5" transform="rotate(0,60,120)"/><path d="M 55 135v 10h 5a 5 5, 0, 0, 0, 0 -10" transform="rotate(0,60,140)"/><path d="M 55 155v 10h 5a 5 5, 0, 0, 0, 0 -10" transform="rotate(-90,60,160)"/><rect x="55" y="165" width="10" height="10" transform="rotate(0,60,170)"/><path d="M 55 175v 10h 5a 5 5, 0, 0, 0, 0 -10" transform="rotate(90,60,180)"/><path d="M 55 195v 10h 10a 10 10, 0, 0, 0, -10 -10" transform="rotate(0,60,200)"/><rect x="55" y="205" width="10" height="10" transform="rotate(0,60,210)"/><path d="M 65 85v 10h 5a 5 5, 0, 0, 0, 0 -10" transform="rotate(180,70,90)"/><path d="M 65 105v 10h 5a 5 5, 0, 0, 0, 0 -10" transform="rotate(180,70,110)"/><path d="M 65 125v 10h 5a 5 5, 0, 0, 0, 0 -10" transform="rotate(180,70,130)"/><path d="M 65 145v 10h 5a 5 5, 0, 0, 0, 0 -10" transform="rotate(180,70,150)"/><rect x="65" y="165" width="10" height="10" transform="rotate(0,70,170)"/><path d="M 65 185v 10h 5a 5 5, 0, 0, 0, 0 -10" transform="rotate(180,70,190)"/><rect x="65" y="205" width="10" height="10" transform="rotate(0,70,210)"/><path d="M 75 85v 10h 5a 5 5, 0, 0, 0, 0 -10" transform="rotate(0,80,90)"/><rect x="75" y="105" width="10" height="10" transform="rotate(0,80,110)"/><path d="M 75 125v 10h 10a 10 10, 0, 0, 0, -10 -10" transform="rotate(0,80,130)"/><rect x="75" y="135" width="10" height="10" transform="rotate(0,80,140)"/><rect x="75" y="145" width="10" height="10" transform="rotate(0,80,150)"/><rect x="75" y="165" width="10" height="10" transform="rotate(0,80,170)"/><rect x="75" y="175" width="10" height="10" transform="rotate(0,80,180)"/><rect x="75" y="185" width="10" height="10" transform="rotate(0,80,190)"/><rect x="75" y="195" width="10" height="10" transform="rotate(0,80,200)"/><rect x="75" y="205" width="10" height="10" transform="rotate(0,80,210)"/><path d="M 85 15v 10h 10a 10 10, 0, 0, 0, -10 -10" transform="rotate(-90,90,20)"/><path d="M 85 25v 10h 10a 10 10, 0, 0, 0, -10 -10" transform="rotate(180,90,30)"/><path d="M 85 45v 10h 5a 5 5, 0, 0, 0, 0 -10" transform="rotate(180,90,50)"/><path d="M 85 65v 10h 5a 5 5, 0, 0, 0, 0 -10" transform="rotate(-90,90,70)"/><path d="M 85 75v 10h 10a 10 10, 0, 0, 0, -10 -10" transform="rotate(180,90,80)"/><path d="M 85 105v 10h 5a 5 5, 0, 0, 0, 0 -10" transform="rotate(0,90,110)"/><rect x="85" y="135" width="10" height="10" transform="rotate(0,90,140)"/><path d="M 85 145v 10h 10a 10 10, 0, 0, 0, -10 -10" transform="rotate(90,90,150)"/><path d="M 85 165v 10h 5a 5 5, 0, 0, 0, 0 -10" transform="rotate(0,90,170)"/><rect x="85" y="185" width="10" height="10" transform="rotate(0,90,190)"/><path d="M 85 205v 10h 5a 5 5, 0, 0, 0, 0 -10" transform="rotate(0,90,210)"/><path d="M 85 225v 10h 5a 5 5, 0, 0, 0, 0 -10" transform="rotate(180,90,230)"/><path d="M 85 245v 10h 5a 5 5, 0, 0, 0, 0 -10" transform="rotate(-90,90,250)"/><rect x="85" y="255" width="10" height="10" transform="rotate(0,90,260)"/><rect x="85" y="265" width="10" height="10" transform="rotate(0,90,270)"/><rect x="85" y="275" width="10" height="10" transform="rotate(0,90,280)"/><path d="M 85 285v 10h 10a 10 10, 0, 0, 0, -10 -10" transform="rotate(180,90,290)"/><path d="M 95 5v 10h 5a 5 5, 0, 0, 0, 0 -10" transform="rotate(-90,100,10)"/><rect x="95" y="15" width="10" height="10" transform="rotate(0,100,20)"/><rect x="95" y="25" width="10" height="10" transform="rotate(0,100,30)"/><rect x="95" y="45" width="10" height="10" transform="rotate(0,100,50)"/><path d="M 95 55v 10h 10a 10 10, 0, 0, 0, -10 -10" transform="rotate(180,100,60)"/><rect x="95" y="75" width="10" height="10" transform="rotate(0,100,80)"/><rect x="95" y="135" width="10" height="10" transform="rotate(0,100,140)"/><path d="M 95 175v 10h 5a 5 5, 0, 0, 0, 0 -10" transform="rotate(-90,100,180)"/><rect x="95" y="185" width="10" height="10" transform="rotate(0,100,190)"/><path d="M 95 195v 10h 5a 5 5, 0, 0, 0, 0 -10" transform="rotate(90,100,200)"/><path d="M 95 225v 10h 10a 10 10, 0, 0, 0, -10 -10" transform="rotate(0,100,230)"/><path d="M 95 235v 10h 10a 10 10, 0, 0, 0, -10 -10" transform="rotate(180,100,240)"/><path d="M 95 265v 10h 5a 5 5, 0, 0, 0, 0 -10" transform="rotate(0,100,270)"/><rect x="95" y="285" width="10" height="10" transform="rotate(0,100,290)"/><path d="M 105 15v 10h 10a 10 10, 0, 0, 0, -10 -10" transform="rotate(0,110,20)"/><rect x="105" y="25" width="10" height="10" transform="rotate(0,110,30)"/><rect x="105" y="35" width="10" height="10" transform="rotate(0,110,40)"/><rect x="105" y="45" width="10" height="10" transform="rotate(0,110,50)"/><rect x="105" y="55" width="10" height="10" transform="rotate(0,110,60)"/><rect x="105" y="65" width="10" height="10" transform="rotate(0,110,70)"/><rect x="105" y="75" width="10" height="10" transform="rotate(0,110,80)"/><path d="M 105 125v 10h 5a 5 5, 0, 0, 0, 0 -10" transform="rotate(-90,110,130)"/><path d="M 105 135v 10h 10a 10 10, 0, 0, 0, -10 -10" transform="rotate(90,110,140)"/><rect x="105" y="185" width="10" height="10" transform="rotate(0,110,190)"/><path d="M 105 205v 10h 5a 5 5, 0, 0, 0, 0 -10" transform="rotate(180,110,210)"/><path d="M 105 235v 10h 10a 10 10, 0, 0, 0, -10 -10" transform="rotate(0,110,240)"/><rect x="105" y="245" width="10" height="10" transform="rotate(0,110,250)"/><path d="M 105 255v 10h 5a 5 5, 0, 0, 0, 0 -10" transform="rotate(90,110,260)"/><path d="M 105 275v 10h 10a 10 10, 0, 0, 0, -10 -10" transform="rotate(-90,110,280)"/><path d="M 105 285v 10h 10a 10 10, 0, 0, 0, -10 -10" transform="rotate(90,110,290)"/><path d="M 115 55v 10h 5a 5 5, 0, 0, 0, 0 -10" transform="rotate(0,120,60)"/><path d="M 115 75v 10h 5a 5 5, 0, 0, 0, 0 -10" transform="rotate(0,120,80)"/><path d="M 115 95v 10h 5a 5 5, 0, 0, 0, 0 -10" transform="rotate(-90,120,100)"/><rect x="115" y="105" width="10" height="10" transform="rotate(0,120,110)"/><path d="M 115 115v 10h 5a 5 5, 0, 0, 0, 0 -10" transform="rotate(90,120,120)"/><path d="M 115 175v 10h 10a 10 10, 0, 0, 0, -10 -10" transform="rotate(-90,120,180)"/><rect x="115" y="185" width="10" height="10" transform="rotate(0,120,190)"/><rect x="115" y="195" width="10" height="10" transform="rotate(0,120,200)"/><rect x="115" y="205" width="10" height="10" transform="rotate(0,120,210)"/><rect x="115" y="215" width="10" height="10" transform="rotate(0,120,220)"/><path d="M 115 225v 10h 10a 10 10, 0, 0, 0, -10 -10" transform="rotate(180,120,230)"/><path d="M 115 275v 10h 5a 5 5, 0, 0, 0, 0 -10" transform="rotate(0,120,280)"/><path d="M 125 15v 10h 5a 5 5, 0, 0, 0, 0 -10" transform="rotate(180,130,20)"/><circle cx="130" cy="70" r="5" transform="rotate(0,130,70)"/><circle cx="130" cy="90" r="5" transform="rotate(0,130,90)"/><path d="M 125 105v 10h 5a 5 5, 0, 0, 0, 0 -10" transform="rotate(0,130,110)"/><path d="M 125 145v 10h 5a 5 5, 0, 0, 0, 0 -10" transform="rotate(180,130,150)"/><path d="M 125 175v 10h 5a 5 5, 0, 0, 0, 0 -10" transform="rotate(0,130,180)"/><path d="M 125 195v 10h 10a 10 10, 0, 0, 0, -10 -10" transform="rotate(0,130,200)"/><rect x="125" y="205" width="10" height="10" transform="rotate(0,130,210)"/><rect x="125" y="225" width="10" height="10" transform="rotate(0,130,230)"/><path d="M 125 235v 10h 10a 10 10, 0, 0, 0, -10 -10" transform="rotate(180,130,240)"/><circle cx="130" cy="270" r="5" transform="rotate(0,130,270)"/><path d="M 135 5v 10h 10a 10 10, 0, 0, 0, -10 -10" transform="rotate(-90,140,10)"/><rect x="135" y="15" width="10" height="10" transform="rotate(0,140,20)"/><rect x="135" y="25" width="10" height="10" transform="rotate(0,140,30)"/><path d="M 135 35v 10h 10a 10 10, 0, 0, 0, -10 -10" transform="rotate(180,140,40)"/><path d="M 135 75v 10h 5a 5 5, 0, 0, 0, 0 -10" transform="rotate(180,140,80)"/><path d="M 135 95v 10h 5a 5 5, 0, 0, 0, 0 -10" transform="rotate(180,140,100)"/><path d="M 135 115v 10h 10a 10 10, 0, 0, 0, -10 -10" transform="rotate(-90,140,120)"/><rect x="135" y="125" width="10" height="10" transform="rotate(0,140,130)"/><rect x="135" y="135" width="10" height="10" transform="rotate(0,140,140)"/><rect x="135" y="145" width="10" height="10" transform="rotate(0,140,150)"/><rect x="135" y="155" width="10" height="10" transform="rotate(0,140,160)"/><path d="M 135 165v 10h 10a 10 10, 0, 0, 0, -10 -10" transform="rotate(180,140,170)"/><circle cx="140" cy="190" r="5" transform="rotate(0,140,190)"/><path d="M 135 205v 10h 10a 10 10, 0, 0, 0, -10 -10" transform="rotate(0,140,210)"/><rect x="135" y="215" width="10" height="10" transform="rotate(0,140,220)"/><rect x="135" y="225" width="10" height="10" transform="rotate(0,140,230)"/><rect x="135" y="235" width="10" height="10" transform="rotate(0,140,240)"/><path d="M 135 275v 10h 5a 5 5, 0, 0, 0, 0 -10" transform="rotate(-90,140,280)"/><path d="M 135 285v 10h 10a 10 10, 0, 0, 0, -10 -10" transform="rotate(180,140,290)"/><rect x="145" y="5" width="10" height="10" transform="rotate(0,150,10)"/><path d="M 145 35v 10h 10a 10 10, 0, 0, 0, -10 -10" transform="rotate(0,150,40)"/><rect x="145" y="45" width="10" height="10" transform="rotate(0,150,50)"/><rect x="145" y="55" width="10" height="10" transform="rotate(0,150,60)"/><rect x="145" y="65" width="10" height="10" transform="rotate(0,150,70)"/><path d="M 145 75v 10h 10a 10 10, 0, 0, 0, -10 -10" transform="rotate(90,150,80)"/><path d="M 145 95v 10h 5a 5 5, 0, 0, 0, 0 -10" transform="rotate(0,150,100)"/><rect x="145" y="115" width="10" height="10" transform="rotate(0,150,120)"/><path d="M 145 125v 10h 10a 10 10, 0, 0, 0, -10 -10" transform="rotate(90,150,130)"/><path d="M 145 165v 10h 10a 10 10, 0, 0, 0, -10 -10" transform="rotate(0,150,170)"/><path d="M 145 175v 10h 5a 5 5, 0, 0, 0, 0 -10" transform="rotate(90,150,180)"/><rect x="145" y="215" width="10" height="10" transform="rotate(0,150,220)"/><rect x="145" y="225" width="10" height="10" transform="rotate(0,150,230)"/><rect x="145" y="235" width="10" height="10" transform="rotate(0,150,240)"/><circle cx="150" cy="270" r="5" transform="rotate(0,150,270)"/><path d="M 145 285v 10h 5a 5 5, 0, 0, 0, 0 -10" transform="rotate(0,150,290)"/><path d="M 155 5v 10h 5a 5 5, 0, 0, 0, 0 -10" transform="rotate(0,160,10)"/><path d="M 155 85v 10h 5a 5 5, 0, 0, 0, 0 -10" transform="rotate(180,160,90)"/><rect x="155" y="115" width="10" height="10" transform="rotate(0,160,120)"/><path d="M 155 135v 10h 5a 5 5, 0, 0, 0, 0 -10" transform="rotate(180,160,140)"/><path d="M 155 195v 10h 10a 10 10, 0, 0, 0, -10 -10" transform="rotate(-90,160,200)"/><rect x="155" y="205" width="10" height="10" transform="rotate(0,160,210)"/><rect x="155" y="215" width="10" height="10" transform="rotate(0,160,220)"/><rect x="155" y="235" width="10" height="10" transform="rotate(0,160,240)"/><path d="M 165 25v 10h 5a 5 5, 0, 0, 0, 0 -10" transform="rotate(-90,170,30)"/><path d="M 165 35v 10h 10a 10 10, 0, 0, 0, -10 -10" transform="rotate(180,170,40)"/><path d="M 165 65v 10h 5a 5 5, 0, 0, 0, 0 -10" transform="rotate(-90,170,70)"/><rect x="165" y="75" width="10" height="10" transform="rotate(0,170,80)"/><rect x="165" y="85" width="10" height="10" transform="rotate(0,170,90)"/><rect x="165" y="95" width="10" height="10" transform="rotate(0,170,100)"/><rect x="165" y="105" width="10" height="10" transform="rotate(0,170,110)"/><rect x="165" y="115" width="10" height="10" transform="rotate(0,170,120)"/><rect x="165" y="135" width="10" height="10" transform="rotate(0,170,140)"/><rect x="165" y="145" width="10" height="10" transform="rotate(0,170,150)"/><path d="M 165 155v 10h 10a 10 10, 0, 0, 0, -10 -10" transform="rotate(180,170,160)"/><path d="M 165 195v 10h 10a 10 10, 0, 0, 0, -10 -10" transform="rotate(0,170,200)"/><rect x="165" y="205" width="10" height="10" transform="rotate(0,170,210)"/><rect x="165" y="215" width="10" height="10" transform="rotate(0,170,220)"/><rect x="165" y="225" width="10" height="10" transform="rotate(0,170,230)"/><path d="M 165 235v 10h 10a 10 10, 0, 0, 0, -10 -10" transform="rotate(90,170,240)"/><path d="M 165 255v 10h 5a 5 5, 0, 0, 0, 0 -10" transform="rotate(180,170,260)"/><path d="M 165 275v 10h 5a 5 5, 0, 0, 0, 0 -10" transform="rotate(180,170,280)"/><circle cx="180" cy="20" r="5" transform="rotate(0,180,20)"/><rect x="175" y="35" width="10" height="10" transform="rotate(0,180,40)"/><rect x="175" y="45" width="10" height="10" transform="rotate(0,180,50)"/><path d="M 175 55v 10h 5a 5 5, 0, 0, 0, 0 -10" transform="rotate(90,180,60)"/><path d="M 175 85v 10h 10a 10 10, 0, 0, 0, -10 -10" transform="rotate(0,180,90)"/><rect x="175" y="95" width="10" height="10" transform="rotate(0,180,100)"/><rect x="175" y="115" width="10" height="10" transform="rotate(0,180,120)"/><rect x="175" y="135" width="10" height="10" transform="rotate(0,180,140)"/><rect x="175" y="145" width="10" height="10" transform="rotate(0,180,150)"/><path d="M 175 155v 10h 10a 10 10, 0, 0, 0, -10 -10" transform="rotate(90,180,160)"/><path d="M 175 175v 10h 5a 5 5, 0, 0, 0, 0 -10" transform="rotate(180,180,180)"/><rect x="175" y="205" width="10" height="10" transform="rotate(0,180,210)"/><rect x="175" y="255" width="10" height="10" transform="rotate(0,180,260)"/><rect x="175" y="275" width="10" height="10" transform="rotate(0,180,280)"/><path d="M 175 285v 10h 10a 10 10, 0, 0, 0, -10 -10" transform="rotate(180,180,290)"/><circle cx="190" cy="10" r="5" transform="rotate(0,190,10)"/><path d="M 185 35v 10h 10a 10 10, 0, 0, 0, -10 -10" transform="rotate(0,190,40)"/><path d="M 185 45v 10h 10a 10 10, 0, 0, 0, -10 -10" transform="rotate(90,190,50)"/><path d="M 185 65v 10h 5a 5 5, 0, 0, 0, 0 -10" transform="rotate(-90,190,70)"/><path d="M 185 75v 10h 5a 5 5, 0, 0, 0, 0 -10" transform="rotate(90,190,80)"/><path d="M 185 95v 10h 5a 5 5, 0, 0, 0, 0 -10" transform="rotate(0,190,100)"/><path d="M 185 115v 10h 5a 5 5, 0, 0, 0, 0 -10" transform="rotate(0,190,120)"/><path d="M 185 135v 10h 10a 10 10, 0, 0, 0, -10 -10" transform="rotate(0,190,140)"/><path d="M 185 145v 10h 10a 10 10, 0, 0, 0, -10 -10" transform="rotate(90,190,150)"/><rect x="185" y="175" width="10" height="10" transform="rotate(0,190,180)"/><path d="M 185 185v 10h 5a 5 5, 0, 0, 0, 0 -10" transform="rotate(90,190,190)"/><path d="M 185 205v 10h 10a 10 10, 0, 0, 0, -10 -10" transform="rotate(0,190,210)"/><path d="M 185 215v 10h 5a 5 5, 0, 0, 0, 0 -10" transform="rotate(90,190,220)"/><path d="M 185 235v 10h 5a 5 5, 0, 0, 0, 0 -10" transform="rotate(-90,190,240)"/><rect x="185" y="245" width="10" height="10" transform="rotate(0,190,250)"/><rect x="185" y="255" width="10" height="10" transform="rotate(0,190,260)"/><rect x="185" y="265" width="10" height="10" transform="rotate(0,190,270)"/><rect x="185" y="275" width="10" height="10" transform="rotate(0,190,280)"/><rect x="185" y="285" width="10" height="10" transform="rotate(0,190,290)"/><path d="M 195 15v 10h 5a 5 5, 0, 0, 0, 0 -10" transform="rotate(-90,200,20)"/><path d="M 195 25v 10h 5a 5 5, 0, 0, 0, 0 -10" transform="rotate(90,200,30)"/><circle cx="200" cy="110" r="5" transform="rotate(0,200,110)"/><path d="M 195 125v 10h 5a 5 5, 0, 0, 0, 0 -10" transform="rotate(180,200,130)"/><circle cx="200" cy="160" r="5" transform="rotate(0,200,160)"/><rect x="195" y="175" width="10" height="10" transform="rotate(0,200,180)"/><path d="M 195 225v 10h 5a 5 5, 0, 0, 0, 0 -10" transform="rotate(180,200,230)"/><rect x="195" y="245" width="10" height="10" transform="rotate(0,200,250)"/><path d="M 195 275v 10h 10a 10 10, 0, 0, 0, -10 -10" transform="rotate(0,200,280)"/><path d="M 195 285v 10h 10a 10 10, 0, 0, 0, -10 -10" transform="rotate(90,200,290)"/><circle cx="210" cy="10" r="5" transform="rotate(0,210,10)"/><path d="M 205 55v 10h 5a 5 5, 0, 0, 0, 0 -10" transform="rotate(-90,210,60)"/><rect x="205" y="65" width="10" height="10" transform="rotate(0,210,70)"/><path d="M 205 75v 10h 5a 5 5, 0, 0, 0, 0 -10" transform="rotate(90,210,80)"/><path d="M 205 115v 10h 10a 10 10, 0, 0, 0, -10 -10" transform="rotate(-90,210,120)"/><path d="M 205 125v 10h 10a 10 10, 0, 0, 0, -10 -10" transform="rotate(90,210,130)"/><path d="M 205 165v 10h 10a 10 10, 0, 0, 0, -10 -10" transform="rotate(-90,210,170)"/><rect x="205" y="175" width="10" height="10" transform="rotate(0,210,180)"/><path d="M 205 185v 10h 5a 5 5, 0, 0, 0, 0 -10" transform="rotate(90,210,190)"/><path d="M 205 205v 10h 10a 10 10, 0, 0, 0, -10 -10" transform="rotate(-90,210,210)"/><rect x="205" y="215" width="10" height="10" transform="rotate(0,210,220)"/><rect x="205" y="225" width="10" height="10" transform="rotate(0,210,230)"/><rect x="205" y="235" width="10" height="10" transform="rotate(0,210,240)"/><rect x="205" y="245" width="10" height="10" transform="rotate(0,210,250)"/><path d="M 215 85v 10h 10a 10 10, 0, 0, 0, -10 -10" transform="rotate(-90,220,90)"/><rect x="215" y="95" width="10" height="10" transform="rotate(0,220,100)"/><rect x="215" y="105" width="10" height="10" transform="rotate(0,220,110)"/><path d="M 215 115v 10h 10a 10 10, 0, 0, 0, -10 -10" transform="rotate(90,220,120)"/><circle cx="220" cy="140" r="5" transform="rotate(0,220,140)"/><path d="M 215 165v 10h 10a 10 10, 0, 0, 0, -10 -10" transform="rotate(0,220,170)"/><path d="M 215 175v 10h 10a 10 10, 0, 0, 0, -10 -10" transform="rotate(90,220,180)"/><path d="M 215 195v 10h 10a 10 10, 0, 0, 0, -10 -10" transform="rotate(-90,220,200)"/><rect x="215" y="205" width="10" height="10" transform="rotate(0,220,210)"/><rect x="215" y="245" width="10" height="10" transform="rotate(0,220,250)"/><path d="M 215 275v 10h 10a 10 10, 0, 0, 0, -10 -10" transform="rotate(-90,220,280)"/><path d="M 215 285v 10h 10a 10 10, 0, 0, 0, -10 -10" transform="rotate(180,220,290)"/><path d="M 225 85v 10h 10a 10 10, 0, 0, 0, -10 -10" transform="rotate(0,230,90)"/><rect x="225" y="95" width="10" height="10" transform="rotate(0,230,100)"/><rect x="225" y="105" width="10" height="10" transform="rotate(0,230,110)"/><path d="M 225 145v 10h 5a 5 5, 0, 0, 0, 0 -10" transform="rotate(180,230,150)"/><path d="M 225 185v 10h 10a 10 10, 0, 0, 0, -10 -10" transform="rotate(-90,230,190)"/><rect x="225" y="195" width="10" height="10" transform="rotate(0,230,200)"/><rect x="225" y="205" width="10" height="10" transform="rotate(0,230,210)"/><circle cx="230" cy="230" r="5" transform="rotate(0,230,230)"/><rect x="225" y="245" width="10" height="10" transform="rotate(0,230,250)"/><path d="M 225 265v 10h 5a 5 5, 0, 0, 0, 0 -10" transform="rotate(-90,230,270)"/><rect x="225" y="275" width="10" height="10" transform="rotate(0,230,280)"/><rect x="225" y="285" width="10" height="10" transform="rotate(0,230,290)"/><path d="M 235 95v 10h 10a 10 10, 0, 0, 0, -10 -10" transform="rotate(0,240,100)"/><rect x="235" y="105" width="10" height="10" transform="rotate(0,240,110)"/><rect x="235" y="115" width="10" height="10" transform="rotate(0,240,120)"/><rect x="235" y="125" width="10" height="10" transform="rotate(0,240,130)"/><rect x="235" y="135" width="10" height="10" transform="rotate(0,240,140)"/><path d="M 235 145v 10h 10a 10 10, 0, 0, 0, -10 -10" transform="rotate(90,240,150)"/><path d="M 235 175v 10h 5a 5 5, 0, 0, 0, 0 -10" transform="rotate(-90,240,180)"/><rect x="235" y="185" width="10" height="10" transform="rotate(0,240,190)"/><rect x="235" y="205" width="10" height="10" transform="rotate(0,240,210)"/><rect x="235" y="245" width="10" height="10" transform="rotate(0,240,250)"/><path d="M 235 285v 10h 5a 5 5, 0, 0, 0, 0 -10" transform="rotate(0,240,290)"/><circle cx="250" cy="90" r="5" transform="rotate(0,250,90)"/><path d="M 245 105v 10h 10a 10 10, 0, 0, 0, -10 -10" transform="rotate(0,250,110)"/><path d="M 245 115v 10h 10a 10 10, 0, 0, 0, -10 -10" transform="rotate(90,250,120)"/><path d="M 245 165v 10h 5a 5 5, 0, 0, 0, 0 -10" transform="rotate(180,250,170)"/><rect x="245" y="185" width="10" height="10" transform="rotate(0,250,190)"/><rect x="245" y="205" width="10" height="10" transform="rotate(0,250,210)"/><rect x="245" y="215" width="10" height="10" transform="rotate(0,250,220)"/><rect x="245" y="225" width="10" height="10" transform="rotate(0,250,230)"/><rect x="245" y="235" width="10" height="10" transform="rotate(0,250,240)"/><rect x="245" y="245" width="10" height="10" transform="rotate(0,250,250)"/><path d="M 245 255v 10h 5a 5 5, 0, 0, 0, 0 -10" transform="rotate(90,250,260)"/><circle cx="250" cy="280" r="5" transform="rotate(0,250,280)"/><path d="M 255 95v 10h 5a 5 5, 0, 0, 0, 0 -10" transform="rotate(180,260,100)"/><path d="M 255 135v 10h 5a 5 5, 0, 0, 0, 0 -10" transform="rotate(180,260,140)"/><path d="M 255 155v 10h 10a 10 10, 0, 0, 0, -10 -10" transform="rotate(-90,260,160)"/><rect x="255" y="165" width="10" height="10" transform="rotate(0,260,170)"/><path d="M 255 185v 10h 5a 5 5, 0, 0, 0, 0 -10" transform="rotate(0,260,190)"/><path d="M 255 205v 10h 10a 10 10, 0, 0, 0, -10 -10" transform="rotate(0,260,210)"/><path d="M 255 215v 10h 10a 10 10, 0, 0, 0, -10 -10" transform="rotate(90,260,220)"/><rect x="255" y="245" width="10" height="10" transform="rotate(0,260,250)"/><path d="M 255 265v 10h 5a 5 5, 0, 0, 0, 0 -10" transform="rotate(180,260,270)"/><path d="M 265 85v 10h 10a 10 10, 0, 0, 0, -10 -10" transform="rotate(-90,270,90)"/><rect x="265" y="95" width="10" height="10" transform="rotate(0,270,100)"/><rect x="265" y="105" width="10" height="10" transform="rotate(0,270,110)"/><rect x="265" y="115" width="10" height="10" transform="rotate(0,270,120)"/><rect x="265" y="125" width="10" height="10" transform="rotate(0,270,130)"/><rect x="265" y="135" width="10" height="10" transform="rotate(0,270,140)"/><path d="M 265 155v 10h 10a 10 10, 0, 0, 0, -10 -10" transform="rotate(0,270,160)"/><rect x="265" y="165" width="10" height="10" transform="rotate(0,270,170)"/><path d="M 265 175v 10h 10a 10 10, 0, 0, 0, -10 -10" transform="rotate(180,270,180)"/><circle cx="270" cy="200" r="5" transform="rotate(0,270,200)"/><path d="M 265 235v 10h 10a 10 10, 0, 0, 0, -10 -10" transform="rotate(-90,270,240)"/><path d="M 265 245v 10h 10a 10 10, 0, 0, 0, -10 -10" transform="rotate(90,270,250)"/><path d="M 265 265v 10h 5a 5 5, 0, 0, 0, 0 -10" transform="rotate(0,270,270)"/><circle cx="270" cy="290" r="5" transform="rotate(0,270,290)"/><path d="M 275 85v 10h 10a 10 10, 0, 0, 0, -10 -10" transform="rotate(0,280,90)"/><rect x="275" y="95" width="10" height="10" transform="rotate(0,280,100)"/><path d="M 275 105v 10h 10a 10 10, 0, 0, 0, -10 -10" transform="rotate(90,280,110)"/><path d="M 275 135v 10h 10a 10 10, 0, 0, 0, -10 -10" transform="rotate(0,280,140)"/><path d="M 275 145v 10h 5a 5 5, 0, 0, 0, 0 -10" transform="rotate(90,280,150)"/><rect x="275" y="165" width="10" height="10" transform="rotate(0,280,170)"/><rect x="275" y="175" width="10" height="10" transform="rotate(0,280,180)"/><path d="M 275 205v 10h 5a 5 5, 0, 0, 0, 0 -10" transform="rotate(180,280,210)"/><path d="M 275 235v 10h 5a 5 5, 0, 0, 0, 0 -10" transform="rotate(0,280,240)"/><path d="M 275 275v 10h 5a 5 5, 0, 0, 0, 0 -10" transform="rotate(180,280,280)"/><path d="M 285 95v 10h 5a 5 5, 0, 0, 0, 0 -10" transform="rotate(0,290,100)"/><circle cx="290" cy="120" r="5" transform="rotate(0,290,120)"/><path d="M 285 155v 10h 5a 5 5, 0, 0, 0, 0 -10" transform="rotate(-90,290,160)"/><rect x="285" y="165" width="10" height="10" transform="rotate(0,290,170)"/><path d="M 285 175v 10h 10a 10 10, 0, 0, 0, -10 -10" transform="rotate(90,290,180)"/><path d="M 285 205v 10h 10a 10 10, 0, 0, 0, -10 -10" transform="rotate(0,290,210)"/><path d="M 285 215v 10h 5a 5 5, 0, 0, 0, 0 -10" transform="rotate(90,290,220)"/><circle cx="290" cy="250" r="5" transform="rotate(0,290,250)"/><path d="M 285 265v 10h 5a 5 5, 0, 0, 0, 0 -10" transform="rotate(-90,290,270)"/><rect x="285" y="275" width="10" height="10" transform="rotate(0,290,280)"/><path d="M 285 285v 10h 5a 5 5, 0, 0, 0, 0 -10" transform="rotate(90,290,290)"/></g><g class="corners-square-color-0-0"><path clip-rule="evenodd" d="M 5 5v 70h 70v -70zM 15 15h 50v 50h -50z" transform="rotate(0,40,40)"/></g><g class="corners-dot-color-0-0"><path d="M 25 25v 10h 10a 10 10, 0, 0, 0, -10 -10" transform="rotate(-90,30,30)"/><rect x="25" y="35" width="10" height="10" transform="rotate(0,30,40)"/><path d="M 25 45v 10h 10a 10 10, 0, 0, 0, -10 -10" transform="rotate(180,30,50)"/><rect x="35" y="25" width="10" height="10" transform="rotate(0,40,30)"/><rect x="35" y="35" width="10" height="10" transform="rotate(0,40,40)"/><rect x="35" y="45" width="10" height="10" transform="rotate(0,40,50)"/><path d="M 45 25v 10h 10a 10 10, 0, 0, 0, -10 -10" transform="rotate(0,50,30)"/><rect x="45" y="35" width="10" height="10" transform="rotate(0,50,40)"/><path d="M 45 45v 10h 10a 10 10, 0, 0, 0, -10 -10" transform="rotate(90,50,50)"/></g><g class="corners-square-color-1-0"><path clip-rule="evenodd" d="M 225 5v 70h 70v -70zM 235 15h 50v 50h -50z" transform="rotate(90,260,40)"/></g><g class="corners-dot-color-1-0"><path d="M 245 25v 10h 10a 10 10, 0, 0, 0, -10 -10" transform="rotate(-90,250,30)"/><rect x="245" y="35" width="10" height="10" transform="rotate(0,250,40)"/><path d="M 245 45v 10h 10a 10 10, 0, 0, 0, -10 -10" transform="rotate(180,250,50)"/><rect x="255" y="25" width="10" height="10" transform="rotate(0,260,30)"/><rect x="255" y="35" width="10" height="10" transform="rotate(0,260,40)"/><rect x="255" y="45" width="10" height="10" transform="rotate(0,260,50)"/><path d="M 265 25v 10h 10a 10 10, 0, 0, 0, -10 -10" transform="rotate(0,270,30)"/><rect x="265" y="35" width="10" height="10" transform="rotate(0,270,40)"/><path d="M 265 45v 10h 10a 10 10, 0, 0, 0, -10 -10" transform="rotate(90,270,50)"/></g><g class="corners-square-color-0-1"><path clip-rule="evenodd" d="M 5 225v 70h 70v -70zM 15 235h 50v 50h -50z" transform="rotate(-90,40,260)"/></g><g class="corners-dot-color-0-1"><path d="M 25 245v 10h 10a 10 10, 0, 0, 0, -10 -10" transform="rotate(-90,30,250)"/><rect x="25" y="255" width="10" height="10" transform="rotate(0,30,260)"/><path d="M 25 265v 10h 10a 10 10, 0, 0, 0, -10 -10" transform="rotate(180,30,270)"/><rect x="35" y="245" width="10" height="10" transform="rotate(0,40,250)"/><rect x="35" y="255" width="10" height="10" transform="rotate(0,40,260)"/><rect x="35" y="265" width="10" height="10" transform="rotate(0,40,270)"/><path d="M 45 245v 10h 10a 10 10, 0, 0, 0, -10 -10" transform="rotate(0,50,250)"/><rect x="45" y="255" width="10" height="10" transform="rotate(0,50,260)"/><path d="M 45 265v 10h 10a 10 10, 0, 0, 0, -10 -10" transform="rotate(90,50,270)"/></g></svg></g></svg></svg>